<svg width="732" height="1411" viewBox="0 0 732 1411" class="keymap" xmlns="http://www.w3.org/2000/svg" xmlns:xlink="http://www.w3.org/1999/xlink">
<style>/* inherit to force styles through use tags */
svg path {
    fill: inherit;
}

/* font and background color specifications */
svg.keymap {
    font-family: SFMono-Regular,Consolas,Liberation Mono,Menlo,monospace;
    font-size: 14px;
    font-kerning: normal;
    text-rendering: optimizeLegibility;
    fill: #24292e;
}

/* default key styling */
rect.key {
    fill: #f6f8fa;
}

rect.key, rect.combo {
    stroke: #c9cccf;
    stroke-width: 1;
}

/* default key side styling, only used is draw_key_sides is set */
rect.side {
    filter: brightness(90%);
}

/* color accent for combo boxes */
rect.combo, rect.combo-separate {
    fill: #cdf;
}

/* color accent for held keys */
rect.held, rect.combo.held {
    fill: #fdd;
}

/* color accent for ghost (optional) keys */
rect.ghost, rect.combo.ghost {
    stroke-dasharray: 4, 4;
    stroke-width: 2;
}

text {
    text-anchor: middle;
    dominant-baseline: middle;
}

/* styling for layer labels */
text.label {
    font-weight: bold;
    text-anchor: start;
    stroke: white;
    stroke-width: 4;
    paint-order: stroke;
}

/* styling for optional footer */
text.footer {
    text-anchor: end;
    dominant-baseline: auto;
    stroke: white;
    stroke-width: 4;
    paint-order: stroke;
}

/* styling for combo tap, and key hold/shifted label text */
text.combo, text.hold, text.shifted {
    font-size: 11px;
}

text.hold {
    text-anchor: middle;
    dominant-baseline: auto;
}

text.shifted {
    text-anchor: middle;
    dominant-baseline: hanging;
}

text.layer-activator {
    text-decoration: underline;
}

/* styling for hold/shifted label text in combo box */
text.combo.hold, text.combo.shifted {
    font-size: 8px;
}

/* lighter symbol for transparent keys */
text.trans {
    fill: #7b7e81;
}

/* styling for combo dendrons */
path.combo {
    stroke-width: 1;
    stroke: gray;
    fill: none;
}

/* Start Tabler Icons Cleanup */
/* cannot use height/width with glyphs */
.icon-tabler > path {
    fill: inherit;
    stroke: inherit;
    stroke-width: 2;
}
/* hide tabler's default box */
.icon-tabler > path[stroke="none"][fill="none"] {
    visibility: hidden;
}
/* End Tabler Icons Cleanup */
</style>
<g transform="translate(30, 0)" class="layer-F A C">
<text x="0" y="28" class="label" id="F-A-C">F A C:</text>
<g transform="translate(0, 56)">
<g transform="translate(28, 81)" class="key keypos-0">
<rect rx="6" ry="6" x="-26" y="-26" width="52" height="52" class="key"/>
<text x="0" y="0" class="key tap">T</text>
</g>
<g transform="translate(84, 46)" class="key keypos-1">
<rect rx="6" ry="6" x="-26" y="-26" width="52" height="52" class="key"/>
<text x="0" y="0" class="key tap">Q</text>
</g>
<g transform="translate(140, 28)" class="key keypos-2">
<rect rx="6" ry="6" x="-26" y="-26" width="52" height="52" class="key"/>
<text x="0" y="0" class="key tap">W</text>
</g>
<g transform="translate(196, 44)" class="key keypos-3">
<rect rx="6" ry="6" x="-26" y="-26" width="52" height="52" class="key"/>
<text x="0" y="0" class="key tap">E</text>
</g>
<g transform="translate(252, 52)" class="key keypos-4">
<rect rx="6" ry="6" x="-26" y="-26" width="52" height="52" class="key"/>
<text x="0" y="0" class="key tap">R</text>
</g>
<g transform="translate(420, 52)" class="key keypos-5">
<rect rx="6" ry="6" x="-26" y="-26" width="52" height="52" class="key"/>
<text x="0" y="0" class="key tap">
<tspan x="0" dy="-0.6em">&amp;qkp</tspan><tspan x="0" dy="1.2em">Y</tspan>
</text>
</g>
<g transform="translate(476, 44)" class="key keypos-6">
<rect rx="6" ry="6" x="-26" y="-26" width="52" height="52" class="key"/>
<text x="0" y="0" class="key tap">
<tspan x="0" dy="-0.6em">&amp;qkp</tspan><tspan x="0" dy="1.2em">U</tspan>
</text>
</g>
<g transform="translate(532, 28)" class="key keypos-7">
<rect rx="6" ry="6" x="-26" y="-26" width="52" height="52" class="key"/>
<text x="0" y="0" class="key tap">
<tspan x="0" dy="-0.6em">&amp;qkp</tspan><tspan x="0" dy="1.2em">I</tspan>
</text>
</g>
<g transform="translate(588, 46)" class="key keypos-8">
<rect rx="6" ry="6" x="-26" y="-26" width="52" height="52" class="key"/>
<text x="0" y="0" class="key tap">
<tspan x="0" dy="-0.6em">&amp;qkp</tspan><tspan x="0" dy="1.2em">O</tspan>
</text>
</g>
<g transform="translate(644, 81)" class="key keypos-9">
<rect rx="6" ry="6" x="-26" y="-26" width="52" height="52" class="key"/>
<text x="0" y="0" class="key tap">
<tspan x="0" dy="-0.6em">&amp;qkp</tspan><tspan x="0" dy="1.2em">P</tspan>
</text>
</g>
<g transform="translate(28, 137)" class="key keypos-10">
<rect rx="6" ry="6" x="-26" y="-26" width="52" height="52" class="key"/>
<text x="0" y="0" class="key tap">LSHIFT</text>
</g>
<g transform="translate(84, 102)" class="key keypos-11">
<rect rx="6" ry="6" x="-26" y="-26" width="52" height="52" class="key"/>
<text x="0" y="0" class="key tap">A</text>
</g>
<g transform="translate(140, 84)" class="key keypos-12">
<rect rx="6" ry="6" x="-26" y="-26" width="52" height="52" class="key"/>
<text x="0" y="0" class="key tap">S</text>
</g>
<g transform="translate(196, 100)" class="key keypos-13">
<rect rx="6" ry="6" x="-26" y="-26" width="52" height="52" class="key"/>
<text x="0" y="0" class="key tap">D</text>
</g>
<g transform="translate(252, 108)" class="key keypos-14">
<rect rx="6" ry="6" x="-26" y="-26" width="52" height="52" class="key"/>
<text x="0" y="0" class="key tap">H</text>
</g>
<g transform="translate(420, 108)" class="key keypos-15">
<rect rx="6" ry="6" x="-26" y="-26" width="52" height="52" class="key"/>
<text x="0" y="0" class="key tap">
<tspan x="0" dy="-0.6em">&amp;qkp</tspan><tspan x="0" dy="1.2em">H</tspan>
</text>
</g>
<g transform="translate(476, 100)" class="key keypos-16">
<rect rx="6" ry="6" x="-26" y="-26" width="52" height="52" class="key"/>
<text x="0" y="0" class="key tap">
<tspan x="0" dy="-0.6em">&amp;qkp</tspan><tspan x="0" dy="1.2em">J</tspan>
</text>
</g>
<g transform="translate(532, 84)" class="key keypos-17">
<rect rx="6" ry="6" x="-26" y="-26" width="52" height="52" class="key"/>
<text x="0" y="0" class="key tap">
<tspan x="0" dy="-0.6em">&amp;qkp</tspan><tspan x="0" dy="1.2em">K</tspan>
</text>
</g>
<g transform="translate(588, 102)" class="key keypos-18">
<rect rx="6" ry="6" x="-26" y="-26" width="52" height="52" class="key"/>
<text x="0" y="0" class="key tap">
<tspan x="0" dy="-0.6em">&amp;qkp</tspan><tspan x="0" dy="1.2em">L</tspan>
</text>
</g>
<g transform="translate(644, 137)" class="key keypos-19">
<rect rx="6" ry="6" x="-26" y="-26" width="52" height="52" class="key"/>
<text x="0" y="0" class="key tap">
<tspan x="0" dy="-0.6em">&amp;qkp</tspan><tspan x="0" dy="1.2em">SEMI</tspan>
</text>
</g>
<g transform="translate(28, 193)" class="key keypos-20">
<rect rx="6" ry="6" x="-26" y="-26" width="52" height="52" class="key"/>
<text x="0" y="0" class="key tap">LCTRL</text>
</g>
<g transform="translate(84, 158)" class="key keypos-21">
<rect rx="6" ry="6" x="-26" y="-26" width="52" height="52" class="key"/>
<text x="0" y="0" class="key tap">Z</text>
</g>
<g transform="translate(140, 140)" class="key keypos-22">
<rect rx="6" ry="6" x="-26" y="-26" width="52" height="52" class="key"/>
<text x="0" y="0" class="key tap">X</text>
</g>
<g transform="translate(196, 156)" class="key keypos-23">
<rect rx="6" ry="6" x="-26" y="-26" width="52" height="52" class="key"/>
<text x="0" y="0" class="key tap">C</text>
</g>
<g transform="translate(252, 164)" class="key keypos-24">
<rect rx="6" ry="6" x="-26" y="-26" width="52" height="52" class="key"/>
<text x="0" y="0" class="key tap">V</text>
</g>
<g transform="translate(420, 164)" class="key keypos-25">
<rect rx="6" ry="6" x="-26" y="-26" width="52" height="52" class="key"/>
<text x="0" y="0" class="key tap">
<tspan x="0" dy="-0.6em">&amp;qkp</tspan><tspan x="0" dy="1.2em">N</tspan>
</text>
</g>
<g transform="translate(476, 156)" class="key keypos-26">
<rect rx="6" ry="6" x="-26" y="-26" width="52" height="52" class="key"/>
<text x="0" y="0" class="key tap">
<tspan x="0" dy="-0.6em">&amp;qkp</tspan><tspan x="0" dy="1.2em">M</tspan>
</text>
</g>
<g transform="translate(532, 140)" class="key keypos-27">
<rect rx="6" ry="6" x="-26" y="-26" width="52" height="52" class="key"/>
<text x="0" y="0" class="key tap">
<tspan x="0" dy="-0.6em">&amp;qkp</tspan><tspan x="0" dy="1.2em">COMMA</tspan>
</text>
</g>
<g transform="translate(588, 158)" class="key keypos-28">
<rect rx="6" ry="6" x="-26" y="-26" width="52" height="52" class="key"/>
<text x="0" y="0" class="key tap">
<tspan x="0" dy="-0.6em">&amp;qkp</tspan><tspan x="0" dy="1.2em">DOT</tspan>
</text>
</g>
<g transform="translate(644, 193)" class="key keypos-29">
<rect rx="6" ry="6" x="-26" y="-26" width="52" height="52" class="key"/>
<text x="0" y="0" class="key tap">
<tspan x="0" dy="-0.6em">&amp;qkp</tspan><tspan x="0" dy="1.2em">FSLH</tspan>
</text>
</g>
<g transform="translate(221, 221) rotate(15.0)" class="key keypos-30">
<rect rx="6" ry="6" x="-26" y="-26" width="52" height="52" class="key"/>
<text x="0" y="0" class="key tap">F</text>
<a href="#T-O-R-Y">
<text x="0" y="24" class="key hold layer-activator">T O R Y</text>
</a></g>
<g transform="translate(279, 245) rotate(30.0)" class="key keypos-31">
<rect rx="6" ry="6" x="-26" y="-26" width="52" height="52" class="key"/>
<text x="0" y="0" class="key tap">SPACE</text>
</g>
<g transform="translate(393, 245) rotate(-30.0)" class="key keypos-32">
<rect rx="6" ry="6" x="-26" y="-26" width="52" height="52" class="key"/>
<text x="0" y="0" class="key tap">
<tspan x="0" dy="-0.6em">&amp;qkp</tspan><tspan x="0" dy="1.2em">SPACE</tspan>
</text>
</g>
<g transform="translate(451, 221) rotate(-15.0)" class="key keypos-33">
<rect rx="6" ry="6" x="-26" y="-26" width="52" height="52" class="key"/>
<a href="#QWERTY">
<text x="0" y="0" class="key tap layer-activator">QWERTY</text>
</a><text x="0" y="24" class="key hold">toggle</text>
</g>
<g class="combo combopos-0">
<path d="M140,101 l-37,1" class="combo"/>
<path d="M140,101 l37,-1" class="combo"/>
<rect rx="6" ry="6" x="126" y="88" width="28" height="26" class="combo"/>
<text x="140" y="101" class="combo tap">G</text>
</g>
<g class="combo combopos-1">
<rect rx="6" ry="6" x="210" y="91" width="28" height="26" class="combo"/>
<text x="224" y="104" class="combo tap">B</text>
<text x="224" y="115" class="combo hold">Alt+ B</text>
</g>
<g class="combo combopos-2">
<rect rx="6" ry="6" x="98" y="136" width="28" height="26" class="combo"/>
<text x="112" y="149" class="combo tap">
<tspan x="112" dy="-0.6em">Alt+</tspan><tspan x="112" dy="1.2em">D</tspan>
</text>
</g>
<g class="combo combopos-3">
<rect rx="6" ry="6" x="154" y="135" width="28" height="26" class="combo"/>
<text x="168" y="148" class="combo tap">
<tspan x="168" dy="-0.6em">Alt+</tspan><tspan x="168" dy="1.2em">U</tspan>
</text>
</g>
<g class="combo combopos-4">
<rect rx="6" ry="6" x="210" y="147" width="28" height="26" class="combo"/>
<text x="224" y="160" class="combo tap">O</text>
</g>
<g class="combo combopos-5">
<rect rx="6" ry="6" x="238" y="123" width="28" height="26" class="combo"/>
<text x="252" y="136" class="combo tap">P</text>
</g>
<g class="combo combopos-6">
<rect rx="6" ry="6" x="42" y="51" width="28" height="26" class="combo"/>
<text x="56" y="64" class="combo tap">1</text>
</g>
<g class="combo combopos-7">
<rect rx="6" ry="6" x="98" y="24" width="28" height="26" class="combo"/>
<text x="112" y="37" class="combo tap">2</text>
</g>
<g class="combo combopos-8">
<rect rx="6" ry="6" x="154" y="23" width="28" height="26" class="combo"/>
<text x="168" y="36" class="combo tap">3</text>
</g>
<g class="combo combopos-9">
<rect rx="6" ry="6" x="210" y="35" width="28" height="26" class="combo"/>
<text x="224" y="48" class="combo tap">4</text>
</g>
<g class="combo combopos-10">
<path d="M84,55 l-39,19" class="combo"/>
<path d="M84,55 l39,-19" class="combo"/>
<rect rx="6" ry="6" x="70" y="42" width="28" height="26" class="combo"/>
<text x="84" y="55" class="combo tap">5</text>
</g>
<g class="combo combopos-11">
<path d="M140,45 l-37,1" class="combo"/>
<path d="M140,45 l37,-1" class="combo"/>
<rect rx="6" ry="6" x="126" y="32" width="28" height="26" class="combo"/>
<text x="140" y="45" class="combo tap">6</text>
</g>
<g class="combo combopos-12">
<path d="M196,40 l-38,-8" class="combo"/>
<path d="M196,40 l38,8" class="combo"/>
<rect rx="6" ry="6" x="182" y="27" width="28" height="26" class="combo"/>
<text x="196" y="40" class="combo tap">7</text>
</g>
<g class="combo combopos-13">
<path d="M112,63 l-66,14" class="combo"/>
<path d="M112,63 l66,-14" class="combo"/>
<rect rx="6" ry="6" x="98" y="50" width="28" height="26" class="combo"/>
<text x="112" y="63" class="combo tap">8</text>
</g>
<g class="combo combopos-14">
<path d="M168,49 l-65,-2" class="combo"/>
<path d="M168,49 l65,2" class="combo"/>
<rect rx="6" ry="6" x="154" y="36" width="28" height="26" class="combo"/>
<text x="168" y="49" class="combo tap">9</text>
</g>
<g class="combo combopos-15">
<path d="M140,66 l-93,12" class="combo"/>
<path d="M140,66 l93,-12" class="combo"/>
<rect rx="6" ry="6" x="126" y="53" width="28" height="26" class="combo"/>
<text x="140" y="66" class="combo tap">0</text>
</g>
<g class="combo combopos-16">
<rect rx="6" ry="6" x="42" y="107" width="28" height="26" class="combo"/>
<text x="56" y="120" class="combo tap">LCTRL</text>
</g>
<g class="combo combopos-17">
<rect rx="6" ry="6" x="42" y="163" width="28" height="26" class="combo"/>
<text x="56" y="176" class="combo tap">LSHFT</text>
</g>
<g class="combo combopos-18">
<rect rx="6" ry="6" x="602" y="163" width="28" height="26" class="combo"/>
<text x="616" y="176" class="combo tap">RSHFT</text>
</g>
<g class="combo combopos-19">
<path d="M112,119 l-66,14" class="combo"/>
<path d="M112,119 l66,-14" class="combo"/>
<rect rx="6" ry="6" x="98" y="106" width="28" height="26" class="combo"/>
<text x="112" y="119" class="combo tap">ESCAPE</text>
</g>
<g class="combo combopos-20">
<path d="M84,111 l-39,19" class="combo"/>
<path d="M84,111 l39,-19" class="combo"/>
<rect rx="6" ry="6" x="70" y="98" width="28" height="26" class="combo"/>
<text x="84" y="111" class="combo tap">TAB</text>
</g>
<g class="combo combopos-21">
<rect rx="6" ry="6" x="490" y="23" width="28" height="26" class="combo"/>
<text x="504" y="36" class="combo tap">DEL</text>
</g>
<g class="combo combopos-22">
<rect rx="6" ry="6" x="602" y="51" width="28" height="26" class="combo"/>
<text x="616" y="64" class="combo tap"><tspan style="font-size: 78%">BACKSPACE</tspan></text>
</g>
<g class="combo combopos-23">
<rect rx="6" ry="6" x="602" y="107" width="28" height="26" class="combo"/>
<text x="616" y="120" class="combo tap">ENTER</text>
</g>
<g class="combo combopos-24">
<rect rx="6" ry="6" x="14" y="96" width="28" height="26" class="combo"/>
<text x="28" y="109" class="combo tap">1</text>
</g>
<g class="combo combopos-25">
<rect rx="6" ry="6" x="70" y="61" width="28" height="26" class="combo"/>
<text x="84" y="74" class="combo tap">2</text>
</g>
<g class="combo combopos-26">
<rect rx="6" ry="6" x="126" y="43" width="28" height="26" class="combo"/>
<text x="140" y="56" class="combo tap">3</text>
</g>
<g class="combo combopos-27">
<rect rx="6" ry="6" x="182" y="59" width="28" height="26" class="combo"/>
<text x="196" y="72" class="combo tap">4</text>
</g>
<g class="combo combopos-28">
<rect rx="6" ry="6" x="238" y="67" width="28" height="26" class="combo"/>
<text x="252" y="80" class="combo tap">5</text>
</g>
<g class="combo combopos-29">
<rect rx="6" ry="6" x="406" y="67" width="28" height="26" class="combo"/>
<text x="420" y="80" class="combo tap">6</text>
</g>
<g class="combo combopos-30">
<rect rx="6" ry="6" x="462" y="59" width="28" height="26" class="combo"/>
<text x="476" y="72" class="combo tap">7</text>
</g>
<g class="combo combopos-31">
<rect rx="6" ry="6" x="518" y="43" width="28" height="26" class="combo"/>
<text x="532" y="56" class="combo tap">8</text>
</g>
<g class="combo combopos-32">
<rect rx="6" ry="6" x="574" y="61" width="28" height="26" class="combo"/>
<text x="588" y="74" class="combo tap">9</text>
</g>
<g class="combo combopos-33">
<rect rx="6" ry="6" x="630" y="96" width="28" height="26" class="combo"/>
<text x="644" y="109" class="combo tap">0</text>
</g>
<g class="combo combopos-34">
<rect rx="6" ry="6" x="490" y="79" width="28" height="26" class="combo"/>
<text x="504" y="92" class="combo tap">{</text>
<text x="504" y="81" class="combo shifted">[</text>
</g>
<g class="combo combopos-35">
<rect rx="6" ry="6" x="546" y="80" width="28" height="26" class="combo"/>
<text x="560" y="93" class="combo tap">}</text>
<text x="560" y="82" class="combo shifted">]</text>
</g>
<g class="combo combopos-36">
<path d="M336,233 l-96,-10" class="combo"/>
<path d="M336,233 l-39,8" class="combo"/>
<path d="M336,233 l39,8" class="combo"/>
<path d="M336,233 l96,-10" class="combo"/>
<rect rx="6" ry="6" x="322" y="220" width="28" height="26" class="combo"/>
<a href="#KBDCTL">
<text x="336" y="233" class="combo tap layer-activator">KBDCTL</text>
</a><text x="336" y="244" class="combo hold">toggle</text>
</g>
</g>
</g>
<g transform="translate(30, 339)" class="layer-T O R Y">
<text x="0" y="28" class="label" id="T-O-R-Y">T O R Y:</text>
<g transform="translate(0, 56)">
<g transform="translate(28, 81)" class="key keypos-0">
<rect rx="6" ry="6" x="-26" y="-26" width="52" height="52" class="key"/>
<text x="0" y="0" class="key tap">1</text>
</g>
<g transform="translate(84, 46)" class="key keypos-1">
<rect rx="6" ry="6" x="-26" y="-26" width="52" height="52" class="key"/>
<text x="0" y="0" class="key tap">2</text>
</g>
<g transform="translate(140, 28)" class="key keypos-2">
<rect rx="6" ry="6" x="-26" y="-26" width="52" height="52" class="key"/>
<text x="0" y="0" class="key tap">3</text>
</g>
<g transform="translate(196, 44)" class="key keypos-3">
<rect rx="6" ry="6" x="-26" y="-26" width="52" height="52" class="key"/>
<text x="0" y="0" class="key tap">4</text>
</g>
<g transform="translate(252, 52)" class="key keypos-4">
<rect rx="6" ry="6" x="-26" y="-26" width="52" height="52" class="key"/>
<text x="0" y="0" class="key tap">5</text>
</g>
<g transform="translate(420, 52)" class="key keypos-5">
<rect rx="6" ry="6" x="-26" y="-26" width="52" height="52" class="key"/>
<text x="0" y="0" class="key tap">6</text>
</g>
<g transform="translate(476, 44)" class="key keypos-6">
<rect rx="6" ry="6" x="-26" y="-26" width="52" height="52" class="key"/>
<text x="0" y="0" class="key tap">7</text>
</g>
<g transform="translate(532, 28)" class="key keypos-7">
<rect rx="6" ry="6" x="-26" y="-26" width="52" height="52" class="key"/>
<text x="0" y="0" class="key tap">8</text>
</g>
<g transform="translate(588, 46)" class="key keypos-8">
<rect rx="6" ry="6" x="-26" y="-26" width="52" height="52" class="key"/>
<text x="0" y="0" class="key tap">9</text>
</g>
<g transform="translate(644, 81)" class="key keypos-9">
<rect rx="6" ry="6" x="-26" y="-26" width="52" height="52" class="key"/>
<text x="0" y="0" class="key tap">0</text>
</g>
<g transform="translate(28, 137)" class="key trans keypos-10">
<rect rx="6" ry="6" x="-26" y="-26" width="52" height="52" class="key trans"/>
<text x="0" y="0" class="key trans tap">▽</text>
</g>
<g transform="translate(84, 102)" class="key keypos-11">
<rect rx="6" ry="6" x="-26" y="-26" width="52" height="52" class="key"/>
<text x="0" y="0" class="key tap">
<tspan x="0" dy="-0.6em">Alt+</tspan><tspan x="0" dy="1.2em">A</tspan>
</text>
</g>
<g transform="translate(140, 84)" class="key keypos-12">
<rect rx="6" ry="6" x="-26" y="-26" width="52" height="52" class="key"/>
<text x="0" y="0" class="key tap">
<tspan x="0" dy="-0.6em">KP</tspan><tspan x="0" dy="1.2em">PLUS</tspan>
</text>
</g>
<g transform="translate(196, 100)" class="key keypos-13">
<rect rx="6" ry="6" x="-26" y="-26" width="52" height="52" class="key"/>
<text x="0" y="0" class="key tap">
<tspan x="0" dy="-0.6em">Alt+</tspan><tspan x="0" dy="1.2em">T</tspan>
</text>
</g>
<g transform="translate(252, 108)" class="key keypos-14">
<rect rx="6" ry="6" x="-26" y="-26" width="52" height="52" class="key"/>
<text x="0" y="0" class="key tap">
<tspan x="0" dy="-0.6em">Alt+</tspan><tspan x="0" dy="1.2em">R</tspan>
</text>
</g>
<g transform="translate(420, 108)" class="key keypos-15">
<rect rx="6" ry="6" x="-26" y="-26" width="52" height="52" class="key"/>
</g>
<g transform="translate(476, 100)" class="key keypos-16">
<rect rx="6" ry="6" x="-26" y="-26" width="52" height="52" class="key"/>
</g>
<g transform="translate(532, 84)" class="key keypos-17">
<rect rx="6" ry="6" x="-26" y="-26" width="52" height="52" class="key"/>
</g>
<g transform="translate(588, 102)" class="key keypos-18">
<rect rx="6" ry="6" x="-26" y="-26" width="52" height="52" class="key"/>
</g>
<g transform="translate(644, 137)" class="key keypos-19">
<rect rx="6" ry="6" x="-26" y="-26" width="52" height="52" class="key"/>
</g>
<g transform="translate(28, 193)" class="key trans keypos-20">
<rect rx="6" ry="6" x="-26" y="-26" width="52" height="52" class="key trans"/>
<text x="0" y="0" class="key trans tap">▽</text>
</g>
<g transform="translate(84, 158)" class="key keypos-21">
<rect rx="6" ry="6" x="-26" y="-26" width="52" height="52" class="key"/>
<text x="0" y="0" class="key tap">
<tspan x="0" dy="-0.6em">Ctl+</tspan><tspan x="0" dy="1.2em">Y</tspan>
</text>
</g>
<g transform="translate(140, 140)" class="key keypos-22">
<rect rx="6" ry="6" x="-26" y="-26" width="52" height="52" class="key"/>
<text x="0" y="0" class="key tap">
<tspan x="0" dy="-0.6em">KP</tspan><tspan x="0" dy="1.2em">MINUS</tspan>
</text>
</g>
<g transform="translate(196, 156)" class="key keypos-23">
<rect rx="6" ry="6" x="-26" y="-26" width="52" height="52" class="key"/>
<text x="0" y="0" class="key tap">
<tspan x="0" dy="-0.6em">Alt+</tspan><tspan x="0" dy="1.2em">C</tspan>
</text>
</g>
<g transform="translate(252, 164)" class="key keypos-24">
<rect rx="6" ry="6" x="-26" y="-26" width="52" height="52" class="key"/>
<text x="0" y="0" class="key tap">
<tspan x="0" dy="-0.6em">Alt+</tspan><tspan x="0" dy="1.2em">G</tspan>
</text>
</g>
<g transform="translate(420, 164)" class="key keypos-25">
<rect rx="6" ry="6" x="-26" y="-26" width="52" height="52" class="key"/>
</g>
<g transform="translate(476, 156)" class="key keypos-26">
<rect rx="6" ry="6" x="-26" y="-26" width="52" height="52" class="key"/>
</g>
<g transform="translate(532, 140)" class="key keypos-27">
<rect rx="6" ry="6" x="-26" y="-26" width="52" height="52" class="key"/>
</g>
<g transform="translate(588, 158)" class="key keypos-28">
<rect rx="6" ry="6" x="-26" y="-26" width="52" height="52" class="key"/>
</g>
<g transform="translate(644, 193)" class="key keypos-29">
<rect rx="6" ry="6" x="-26" y="-26" width="52" height="52" class="key"/>
</g>
<g transform="translate(221, 221) rotate(15.0)" class="key held keypos-30">
<rect rx="6" ry="6" x="-26" y="-26" width="52" height="52" class="key held"/>
</g>
<g transform="translate(279, 245) rotate(30.0)" class="key trans keypos-31">
<rect rx="6" ry="6" x="-26" y="-26" width="52" height="52" class="key trans"/>
<text x="0" y="0" class="key trans tap">▽</text>
</g>
<g transform="translate(393, 245) rotate(-30.0)" class="key trans keypos-32">
<rect rx="6" ry="6" x="-26" y="-26" width="52" height="52" class="key trans"/>
<text x="0" y="0" class="key trans tap">▽</text>
</g>
<g transform="translate(451, 221) rotate(-15.0)" class="key keypos-33">
<rect rx="6" ry="6" x="-26" y="-26" width="52" height="52" class="key"/>
<a href="#QWERTY">
<text x="0" y="0" class="key tap layer-activator">QWERTY</text>
</a><text x="0" y="24" class="key hold">toggle</text>
</g>
<g class="combo combopos-0">
<rect rx="6" ry="6" x="42" y="107" width="28" height="26" class="combo"/>
<text x="56" y="120" class="combo tap">LCTRL</text>
</g>
<g class="combo combopos-1">
<rect rx="6" ry="6" x="42" y="163" width="28" height="26" class="combo"/>
<text x="56" y="176" class="combo tap">LSHFT</text>
</g>
<g class="combo combopos-2">
<rect rx="6" ry="6" x="602" y="163" width="28" height="26" class="combo"/>
<text x="616" y="176" class="combo tap">RSHFT</text>
</g>
<g class="combo combopos-3">
<path d="M112,119 l-66,14" class="combo"/>
<path d="M112,119 l66,-14" class="combo"/>
<rect rx="6" ry="6" x="98" y="106" width="28" height="26" class="combo"/>
<text x="112" y="119" class="combo tap">ESCAPE</text>
</g>
<g class="combo combopos-4">
<path d="M84,111 l-39,19" class="combo"/>
<path d="M84,111 l39,-19" class="combo"/>
<rect rx="6" ry="6" x="70" y="98" width="28" height="26" class="combo"/>
<text x="84" y="111" class="combo tap">TAB</text>
</g>
<g class="combo combopos-5">
<rect rx="6" ry="6" x="490" y="23" width="28" height="26" class="combo"/>
<text x="504" y="36" class="combo tap">DEL</text>
</g>
<g class="combo combopos-6">
<rect rx="6" ry="6" x="602" y="51" width="28" height="26" class="combo"/>
<text x="616" y="64" class="combo tap"><tspan style="font-size: 78%">BACKSPACE</tspan></text>
</g>
<g class="combo combopos-7">
<rect rx="6" ry="6" x="602" y="107" width="28" height="26" class="combo"/>
<text x="616" y="120" class="combo tap">ENTER</text>
</g>
<g class="combo combopos-8">
<rect rx="6" ry="6" x="14" y="96" width="28" height="26" class="combo"/>
<text x="28" y="109" class="combo tap">1</text>
</g>
<g class="combo combopos-9">
<rect rx="6" ry="6" x="70" y="61" width="28" height="26" class="combo"/>
<text x="84" y="74" class="combo tap">2</text>
</g>
<g class="combo combopos-10">
<rect rx="6" ry="6" x="126" y="43" width="28" height="26" class="combo"/>
<text x="140" y="56" class="combo tap">3</text>
</g>
<g class="combo combopos-11">
<rect rx="6" ry="6" x="182" y="59" width="28" height="26" class="combo"/>
<text x="196" y="72" class="combo tap">4</text>
</g>
<g class="combo combopos-12">
<rect rx="6" ry="6" x="238" y="67" width="28" height="26" class="combo"/>
<text x="252" y="80" class="combo tap">5</text>
</g>
<g class="combo combopos-13">
<rect rx="6" ry="6" x="406" y="67" width="28" height="26" class="combo"/>
<text x="420" y="80" class="combo tap">6</text>
</g>
<g class="combo combopos-14">
<rect rx="6" ry="6" x="462" y="59" width="28" height="26" class="combo"/>
<text x="476" y="72" class="combo tap">7</text>
</g>
<g class="combo combopos-15">
<rect rx="6" ry="6" x="518" y="43" width="28" height="26" class="combo"/>
<text x="532" y="56" class="combo tap">8</text>
</g>
<g class="combo combopos-16">
<rect rx="6" ry="6" x="574" y="61" width="28" height="26" class="combo"/>
<text x="588" y="74" class="combo tap">9</text>
</g>
<g class="combo combopos-17">
<rect rx="6" ry="6" x="630" y="96" width="28" height="26" class="combo"/>
<text x="644" y="109" class="combo tap">0</text>
</g>
<g class="combo combopos-18">
<rect rx="6" ry="6" x="490" y="79" width="28" height="26" class="combo"/>
<text x="504" y="92" class="combo tap">{</text>
<text x="504" y="81" class="combo shifted">[</text>
</g>
<g class="combo combopos-19">
<rect rx="6" ry="6" x="546" y="80" width="28" height="26" class="combo"/>
<text x="560" y="93" class="combo tap">}</text>
<text x="560" y="82" class="combo shifted">]</text>
</g>
<g class="combo combopos-20">
<path d="M336,233 l-96,-10" class="combo"/>
<path d="M336,233 l-39,8" class="combo"/>
<path d="M336,233 l39,8" class="combo"/>
<path d="M336,233 l96,-10" class="combo"/>
<rect rx="6" ry="6" x="322" y="220" width="28" height="26" class="combo"/>
<a href="#KBDCTL">
<text x="336" y="233" class="combo tap layer-activator">KBDCTL</text>
</a><text x="336" y="244" class="combo hold">toggle</text>
</g>
</g>
</g>
<g transform="translate(30, 678)" class="layer-QWERTY">
<text x="0" y="28" class="label" id="QWERTY">QWERTY:</text>
<g transform="translate(0, 56)">
<g transform="translate(28, 81)" class="key keypos-0">
<rect rx="6" ry="6" x="-26" y="-26" width="52" height="52" class="key"/>
<text x="0" y="0" class="key tap">Q</text>
</g>
<g transform="translate(84, 46)" class="key keypos-1">
<rect rx="6" ry="6" x="-26" y="-26" width="52" height="52" class="key"/>
<text x="0" y="0" class="key tap">W</text>
</g>
<g transform="translate(140, 28)" class="key keypos-2">
<rect rx="6" ry="6" x="-26" y="-26" width="52" height="52" class="key"/>
<text x="0" y="0" class="key tap">E</text>
</g>
<g transform="translate(196, 44)" class="key keypos-3">
<rect rx="6" ry="6" x="-26" y="-26" width="52" height="52" class="key"/>
<text x="0" y="0" class="key tap">R</text>
</g>
<g transform="translate(252, 52)" class="key keypos-4">
<rect rx="6" ry="6" x="-26" y="-26" width="52" height="52" class="key"/>
<text x="0" y="0" class="key tap">T</text>
</g>
<g transform="translate(420, 52)" class="key keypos-5">
<rect rx="6" ry="6" x="-26" y="-26" width="52" height="52" class="key"/>
<text x="0" y="0" class="key tap">Y</text>
</g>
<g transform="translate(476, 44)" class="key keypos-6">
<rect rx="6" ry="6" x="-26" y="-26" width="52" height="52" class="key"/>
<text x="0" y="0" class="key tap">U</text>
</g>
<g transform="translate(532, 28)" class="key keypos-7">
<rect rx="6" ry="6" x="-26" y="-26" width="52" height="52" class="key"/>
<text x="0" y="0" class="key tap">I</text>
</g>
<g transform="translate(588, 46)" class="key keypos-8">
<rect rx="6" ry="6" x="-26" y="-26" width="52" height="52" class="key"/>
<text x="0" y="0" class="key tap">O</text>
</g>
<g transform="translate(644, 81)" class="key keypos-9">
<rect rx="6" ry="6" x="-26" y="-26" width="52" height="52" class="key"/>
<text x="0" y="0" class="key tap">P</text>
</g>
<g transform="translate(28, 137)" class="key keypos-10">
<rect rx="6" ry="6" x="-26" y="-26" width="52" height="52" class="key"/>
<text x="0" y="0" class="key tap">A</text>
</g>
<g transform="translate(84, 102)" class="key keypos-11">
<rect rx="6" ry="6" x="-26" y="-26" width="52" height="52" class="key"/>
<text x="0" y="0" class="key tap">S</text>
</g>
<g transform="translate(140, 84)" class="key keypos-12">
<rect rx="6" ry="6" x="-26" y="-26" width="52" height="52" class="key"/>
<text x="0" y="0" class="key tap">D</text>
</g>
<g transform="translate(196, 100)" class="key keypos-13">
<rect rx="6" ry="6" x="-26" y="-26" width="52" height="52" class="key"/>
<text x="0" y="0" class="key tap">F</text>
</g>
<g transform="translate(252, 108)" class="key keypos-14">
<rect rx="6" ry="6" x="-26" y="-26" width="52" height="52" class="key"/>
<text x="0" y="0" class="key tap">G</text>
</g>
<g transform="translate(420, 108)" class="key keypos-15">
<rect rx="6" ry="6" x="-26" y="-26" width="52" height="52" class="key"/>
<text x="0" y="0" class="key tap">H</text>
</g>
<g transform="translate(476, 100)" class="key keypos-16">
<rect rx="6" ry="6" x="-26" y="-26" width="52" height="52" class="key"/>
<text x="0" y="0" class="key tap">J</text>
</g>
<g transform="translate(532, 84)" class="key keypos-17">
<rect rx="6" ry="6" x="-26" y="-26" width="52" height="52" class="key"/>
<text x="0" y="0" class="key tap">K</text>
</g>
<g transform="translate(588, 102)" class="key keypos-18">
<rect rx="6" ry="6" x="-26" y="-26" width="52" height="52" class="key"/>
<text x="0" y="0" class="key tap">L</text>
</g>
<g transform="translate(644, 137)" class="key keypos-19">
<rect rx="6" ry="6" x="-26" y="-26" width="52" height="52" class="key"/>
<text x="0" y="0" class="key tap">;</text>
</g>
<g transform="translate(28, 193)" class="key keypos-20">
<rect rx="6" ry="6" x="-26" y="-26" width="52" height="52" class="key"/>
<text x="0" y="0" class="key tap">Z</text>
</g>
<g transform="translate(84, 158)" class="key keypos-21">
<rect rx="6" ry="6" x="-26" y="-26" width="52" height="52" class="key"/>
<text x="0" y="0" class="key tap">X</text>
</g>
<g transform="translate(140, 140)" class="key keypos-22">
<rect rx="6" ry="6" x="-26" y="-26" width="52" height="52" class="key"/>
<text x="0" y="0" class="key tap">C</text>
</g>
<g transform="translate(196, 156)" class="key keypos-23">
<rect rx="6" ry="6" x="-26" y="-26" width="52" height="52" class="key"/>
<text x="0" y="0" class="key tap">V</text>
</g>
<g transform="translate(252, 164)" class="key keypos-24">
<rect rx="6" ry="6" x="-26" y="-26" width="52" height="52" class="key"/>
<text x="0" y="0" class="key tap">B</text>
</g>
<g transform="translate(420, 164)" class="key keypos-25">
<rect rx="6" ry="6" x="-26" y="-26" width="52" height="52" class="key"/>
<text x="0" y="0" class="key tap">N</text>
</g>
<g transform="translate(476, 156)" class="key keypos-26">
<rect rx="6" ry="6" x="-26" y="-26" width="52" height="52" class="key"/>
<text x="0" y="0" class="key tap">M</text>
</g>
<g transform="translate(532, 140)" class="key keypos-27">
<rect rx="6" ry="6" x="-26" y="-26" width="52" height="52" class="key"/>
<text x="0" y="0" class="key tap">,</text>
</g>
<g transform="translate(588, 158)" class="key keypos-28">
<rect rx="6" ry="6" x="-26" y="-26" width="52" height="52" class="key"/>
<text x="0" y="0" class="key tap">.</text>
</g>
<g transform="translate(644, 193)" class="key keypos-29">
<rect rx="6" ry="6" x="-26" y="-26" width="52" height="52" class="key"/>
<text x="0" y="0" class="key tap">/</text>
</g>
<g transform="translate(221, 221) rotate(15.0)" class="key keypos-30">
<rect rx="6" ry="6" x="-26" y="-26" width="52" height="52" class="key"/>
<text x="0" y="0" class="key tap">ESC</text>
</g>
<g transform="translate(279, 245) rotate(30.0)" class="key keypos-31">
<rect rx="6" ry="6" x="-26" y="-26" width="52" height="52" class="key"/>
<text x="0" y="0" class="key tap">LSHIFT</text>
</g>
<g transform="translate(393, 245) rotate(-30.0)" class="key keypos-32">
<rect rx="6" ry="6" x="-26" y="-26" width="52" height="52" class="key"/>
<text x="0" y="0" class="key tap">SPACE</text>
</g>
<g transform="translate(451, 221) rotate(-15.0)" class="key keypos-33">
<rect rx="6" ry="6" x="-26" y="-26" width="52" height="52" class="key"/>
<a href="#QWERTY">
<text x="0" y="0" class="key tap layer-activator">QWERTY</text>
</a><text x="0" y="24" class="key hold">toggle</text>
</g>
<g class="combo combopos-0">
<rect rx="6" ry="6" x="42" y="107" width="28" height="26" class="combo"/>
<text x="56" y="120" class="combo tap">LCTRL</text>
</g>
<g class="combo combopos-1">
<rect rx="6" ry="6" x="42" y="163" width="28" height="26" class="combo"/>
<text x="56" y="176" class="combo tap">LSHFT</text>
</g>
<g class="combo combopos-2">
<rect rx="6" ry="6" x="602" y="163" width="28" height="26" class="combo"/>
<text x="616" y="176" class="combo tap">RSHFT</text>
</g>
<g class="combo combopos-3">
<path d="M112,119 l-66,14" class="combo"/>
<path d="M112,119 l66,-14" class="combo"/>
<rect rx="6" ry="6" x="98" y="106" width="28" height="26" class="combo"/>
<text x="112" y="119" class="combo tap">ESCAPE</text>
</g>
<g class="combo combopos-4">
<path d="M84,111 l-39,19" class="combo"/>
<path d="M84,111 l39,-19" class="combo"/>
<rect rx="6" ry="6" x="70" y="98" width="28" height="26" class="combo"/>
<text x="84" y="111" class="combo tap">TAB</text>
</g>
<g class="combo combopos-5">
<rect rx="6" ry="6" x="490" y="23" width="28" height="26" class="combo"/>
<text x="504" y="36" class="combo tap">DEL</text>
</g>
<g class="combo combopos-6">
<rect rx="6" ry="6" x="602" y="51" width="28" height="26" class="combo"/>
<text x="616" y="64" class="combo tap"><tspan style="font-size: 78%">BACKSPACE</tspan></text>
</g>
<g class="combo combopos-7">
<rect rx="6" ry="6" x="602" y="107" width="28" height="26" class="combo"/>
<text x="616" y="120" class="combo tap">ENTER</text>
</g>
<g class="combo combopos-8">
<rect rx="6" ry="6" x="14" y="96" width="28" height="26" class="combo"/>
<text x="28" y="109" class="combo tap">1</text>
</g>
<g class="combo combopos-9">
<rect rx="6" ry="6" x="70" y="61" width="28" height="26" class="combo"/>
<text x="84" y="74" class="combo tap">2</text>
</g>
<g class="combo combopos-10">
<rect rx="6" ry="6" x="126" y="43" width="28" height="26" class="combo"/>
<text x="140" y="56" class="combo tap">3</text>
</g>
<g class="combo combopos-11">
<rect rx="6" ry="6" x="182" y="59" width="28" height="26" class="combo"/>
<text x="196" y="72" class="combo tap">4</text>
</g>
<g class="combo combopos-12">
<rect rx="6" ry="6" x="238" y="67" width="28" height="26" class="combo"/>
<text x="252" y="80" class="combo tap">5</text>
</g>
<g class="combo combopos-13">
<rect rx="6" ry="6" x="406" y="67" width="28" height="26" class="combo"/>
<text x="420" y="80" class="combo tap">6</text>
</g>
<g class="combo combopos-14">
<rect rx="6" ry="6" x="462" y="59" width="28" height="26" class="combo"/>
<text x="476" y="72" class="combo tap">7</text>
</g>
<g class="combo combopos-15">
<rect rx="6" ry="6" x="518" y="43" width="28" height="26" class="combo"/>
<text x="532" y="56" class="combo tap">8</text>
</g>
<g class="combo combopos-16">
<rect rx="6" ry="6" x="574" y="61" width="28" height="26" class="combo"/>
<text x="588" y="74" class="combo tap">9</text>
</g>
<g class="combo combopos-17">
<rect rx="6" ry="6" x="630" y="96" width="28" height="26" class="combo"/>
<text x="644" y="109" class="combo tap">0</text>
</g>
<g class="combo combopos-18">
<rect rx="6" ry="6" x="490" y="79" width="28" height="26" class="combo"/>
<text x="504" y="92" class="combo tap">{</text>
<text x="504" y="81" class="combo shifted">[</text>
</g>
<g class="combo combopos-19">
<rect rx="6" ry="6" x="546" y="80" width="28" height="26" class="combo"/>
<text x="560" y="93" class="combo tap">}</text>
<text x="560" y="82" class="combo shifted">]</text>
</g>
<g class="combo combopos-20">
<path d="M336,233 l-96,-10" class="combo"/>
<path d="M336,233 l-39,8" class="combo"/>
<path d="M336,233 l39,8" class="combo"/>
<path d="M336,233 l96,-10" class="combo"/>
<rect rx="6" ry="6" x="322" y="220" width="28" height="26" class="combo"/>
<a href="#KBDCTL">
<text x="336" y="233" class="combo tap layer-activator">KBDCTL</text>
</a><text x="336" y="244" class="combo hold">toggle</text>
</g>
</g>
</g>
<g transform="translate(30, 1016)" class="layer-KBDCTL">
<text x="0" y="28" class="label" id="KBDCTL">KBDCTL:</text>
<g transform="translate(0, 56)">
<g transform="translate(28, 81)" class="key keypos-0">
<rect rx="6" ry="6" x="-26" y="-26" width="52" height="52" class="key"/>
</g>
<g transform="translate(84, 46)" class="key keypos-1">
<rect rx="6" ry="6" x="-26" y="-26" width="52" height="52" class="key"/>
</g>
<g transform="translate(140, 28)" class="key keypos-2">
<rect rx="6" ry="6" x="-26" y="-26" width="52" height="52" class="key"/>
</g>
<g transform="translate(196, 44)" class="key keypos-3">
<rect rx="6" ry="6" x="-26" y="-26" width="52" height="52" class="key"/>
</g>
<g transform="translate(252, 52)" class="key keypos-4">
<rect rx="6" ry="6" x="-26" y="-26" width="52" height="52" class="key"/>
</g>
<g transform="translate(420, 52)" class="key keypos-5">
<rect rx="6" ry="6" x="-26" y="-26" width="52" height="52" class="key"/>
</g>
<g transform="translate(476, 44)" class="key keypos-6">
<rect rx="6" ry="6" x="-26" y="-26" width="52" height="52" class="key"/>
</g>
<g transform="translate(532, 28)" class="key keypos-7">
<rect rx="6" ry="6" x="-26" y="-26" width="52" height="52" class="key"/>
</g>
<g transform="translate(588, 46)" class="key keypos-8">
<rect rx="6" ry="6" x="-26" y="-26" width="52" height="52" class="key"/>
</g>
<g transform="translate(644, 81)" class="key keypos-9">
<rect rx="6" ry="6" x="-26" y="-26" width="52" height="52" class="key"/>
</g>
<g transform="translate(28, 137)" class="key keypos-10">
<rect rx="6" ry="6" x="-26" y="-26" width="52" height="52" class="key"/>
</g>
<g transform="translate(84, 102)" class="key keypos-11">
<rect rx="6" ry="6" x="-26" y="-26" width="52" height="52" class="key"/>
</g>
<g transform="translate(140, 84)" class="key keypos-12">
<rect rx="6" ry="6" x="-26" y="-26" width="52" height="52" class="key"/>
</g>
<g transform="translate(196, 100)" class="key keypos-13">
<rect rx="6" ry="6" x="-26" y="-26" width="52" height="52" class="key"/>
</g>
<g transform="translate(252, 108)" class="key keypos-14">
<rect rx="6" ry="6" x="-26" y="-26" width="52" height="52" class="key"/>
</g>
<g transform="translate(420, 108)" class="key keypos-15">
<rect rx="6" ry="6" x="-26" y="-26" width="52" height="52" class="key"/>
</g>
<g transform="translate(476, 100)" class="key keypos-16">
<rect rx="6" ry="6" x="-26" y="-26" width="52" height="52" class="key"/>
</g>
<g transform="translate(532, 84)" class="key keypos-17">
<rect rx="6" ry="6" x="-26" y="-26" width="52" height="52" class="key"/>
</g>
<g transform="translate(588, 102)" class="key keypos-18">
<rect rx="6" ry="6" x="-26" y="-26" width="52" height="52" class="key"/>
</g>
<g transform="translate(644, 137)" class="key keypos-19">
<rect rx="6" ry="6" x="-26" y="-26" width="52" height="52" class="key"/>
</g>
<g transform="translate(28, 193)" class="key keypos-20">
<rect rx="6" ry="6" x="-26" y="-26" width="52" height="52" class="key"/>
<text x="0" y="0" class="key tap">&amp;btp</text>
</g>
<g transform="translate(84, 158)" class="key keypos-21">
<rect rx="6" ry="6" x="-26" y="-26" width="52" height="52" class="key"/>
<text x="0" y="0" class="key tap">
<tspan x="0" dy="-0.6em">&amp;btp</tspan><tspan x="0" dy="1.2em">1</tspan>
</text>
</g>
<g transform="translate(140, 140)" class="key keypos-22">
<rect rx="6" ry="6" x="-26" y="-26" width="52" height="52" class="key"/>
<text x="0" y="0" class="key tap">
<tspan x="0" dy="-0.6em">&amp;btp</tspan><tspan x="0" dy="1.2em">2</tspan>
</text>
</g>
<g transform="translate(196, 156)" class="key keypos-23">
<rect rx="6" ry="6" x="-26" y="-26" width="52" height="52" class="key"/>
<text x="0" y="0" class="key tap">
<tspan x="0" dy="-0.6em">&amp;btp</tspan><tspan x="0" dy="1.2em">3</tspan>
</text>
</g>
<g transform="translate(252, 164)" class="key keypos-24">
<rect rx="6" ry="6" x="-26" y="-26" width="52" height="52" class="key"/>
<text x="0" y="0" class="key tap">
<tspan x="0" dy="-0.6em">&amp;btp</tspan><tspan x="0" dy="1.2em">4</tspan>
</text>
</g>
<g transform="translate(420, 164)" class="key keypos-25">
<rect rx="6" ry="6" x="-26" y="-26" width="52" height="52" class="key"/>
<text x="0" y="0" class="key tap">&amp;btcc</text>
</g>
<g transform="translate(476, 156)" class="key keypos-26">
<rect rx="6" ry="6" x="-26" y="-26" width="52" height="52" class="key"/>
</g>
<g transform="translate(532, 140)" class="key keypos-27">
<rect rx="6" ry="6" x="-26" y="-26" width="52" height="52" class="key"/>
</g>
<g transform="translate(588, 158)" class="key keypos-28">
<rect rx="6" ry="6" x="-26" y="-26" width="52" height="52" class="key"/>
</g>
<g transform="translate(644, 193)" class="key keypos-29">
<rect rx="6" ry="6" x="-26" y="-26" width="52" height="52" class="key"/>
</g>
<g transform="translate(221, 221) rotate(15.0)" class="key keypos-30">
<rect rx="6" ry="6" x="-26" y="-26" width="52" height="52" class="key"/>
</g>
<g transform="translate(279, 245) rotate(30.0)" class="key keypos-31">
<rect rx="6" ry="6" x="-26" y="-26" width="52" height="52" class="key"/>
</g>
<g transform="translate(393, 245) rotate(-30.0)" class="key keypos-32">
<rect rx="6" ry="6" x="-26" y="-26" width="52" height="52" class="key"/>
</g>
<g transform="translate(451, 221) rotate(-15.0)" class="key keypos-33">
<rect rx="6" ry="6" x="-26" y="-26" width="52" height="52" class="key"/>
<a href="#KBDCTL">
<text x="0" y="0" class="key tap layer-activator">KBDCTL</text>
</a><text x="0" y="24" class="key hold">toggle</text>
</g>
<g class="combo combopos-0">
<rect rx="6" ry="6" x="42" y="107" width="28" height="26" class="combo"/>
<text x="56" y="120" class="combo tap">LCTRL</text>
</g>
<g class="combo combopos-1">
<rect rx="6" ry="6" x="42" y="163" width="28" height="26" class="combo"/>
<text x="56" y="176" class="combo tap">LSHFT</text>
</g>
<g class="combo combopos-2">
<rect rx="6" ry="6" x="602" y="163" width="28" height="26" class="combo"/>
<text x="616" y="176" class="combo tap">RSHFT</text>
</g>
<g class="combo combopos-3">
<path d="M112,119 l-66,14" class="combo"/>
<path d="M112,119 l66,-14" class="combo"/>
<rect rx="6" ry="6" x="98" y="106" width="28" height="26" class="combo"/>
<text x="112" y="119" class="combo tap">ESCAPE</text>
</g>
<g class="combo combopos-4">
<path d="M84,111 l-39,19" class="combo"/>
<path d="M84,111 l39,-19" class="combo"/>
<rect rx="6" ry="6" x="70" y="98" width="28" height="26" class="combo"/>
<text x="84" y="111" class="combo tap">TAB</text>
</g>
<g class="combo combopos-5">
<rect rx="6" ry="6" x="490" y="23" width="28" height="26" class="combo"/>
<text x="504" y="36" class="combo tap">DEL</text>
</g>
<g class="combo combopos-6">
<rect rx="6" ry="6" x="602" y="51" width="28" height="26" class="combo"/>
<text x="616" y="64" class="combo tap"><tspan style="font-size: 78%">BACKSPACE</tspan></text>
</g>
<g class="combo combopos-7">
<rect rx="6" ry="6" x="602" y="107" width="28" height="26" class="combo"/>
<text x="616" y="120" class="combo tap">ENTER</text>
</g>
<g class="combo combopos-8">
<rect rx="6" ry="6" x="14" y="96" width="28" height="26" class="combo"/>
<text x="28" y="109" class="combo tap">1</text>
</g>
<g class="combo combopos-9">
<rect rx="6" ry="6" x="70" y="61" width="28" height="26" class="combo"/>
<text x="84" y="74" class="combo tap">2</text>
</g>
<g class="combo combopos-10">
<rect rx="6" ry="6" x="126" y="43" width="28" height="26" class="combo"/>
<text x="140" y="56" class="combo tap">3</text>
</g>
<g class="combo combopos-11">
<rect rx="6" ry="6" x="182" y="59" width="28" height="26" class="combo"/>
<text x="196" y="72" class="combo tap">4</text>
</g>
<g class="combo combopos-12">
<rect rx="6" ry="6" x="238" y="67" width="28" height="26" class="combo"/>
<text x="252" y="80" class="combo tap">5</text>
</g>
<g class="combo combopos-13">
<rect rx="6" ry="6" x="406" y="67" width="28" height="26" class="combo"/>
<text x="420" y="80" class="combo tap">6</text>
</g>
<g class="combo combopos-14">
<rect rx="6" ry="6" x="462" y="59" width="28" height="26" class="combo"/>
<text x="476" y="72" class="combo tap">7</text>
</g>
<g class="combo combopos-15">
<rect rx="6" ry="6" x="518" y="43" width="28" height="26" class="combo"/>
<text x="532" y="56" class="combo tap">8</text>
</g>
<g class="combo combopos-16">
<rect rx="6" ry="6" x="574" y="61" width="28" height="26" class="combo"/>
<text x="588" y="74" class="combo tap">9</text>
</g>
<g class="combo combopos-17">
<rect rx="6" ry="6" x="630" y="96" width="28" height="26" class="combo"/>
<text x="644" y="109" class="combo tap">0</text>
</g>
<g class="combo combopos-18">
<rect rx="6" ry="6" x="490" y="79" width="28" height="26" class="combo"/>
<text x="504" y="92" class="combo tap">{</text>
<text x="504" y="81" class="combo shifted">[</text>
</g>
<g class="combo combopos-19">
<rect rx="6" ry="6" x="546" y="80" width="28" height="26" class="combo"/>
<text x="560" y="93" class="combo tap">}</text>
<text x="560" y="82" class="combo shifted">]</text>
</g>
<g class="combo combopos-20">
<path d="M336,233 l-96,-10" class="combo"/>
<path d="M336,233 l-39,8" class="combo"/>
<path d="M336,233 l39,8" class="combo"/>
<path d="M336,233 l96,-10" class="combo"/>
<rect rx="6" ry="6" x="322" y="220" width="28" height="26" class="combo"/>
<a href="#KBDCTL">
<text x="336" y="233" class="combo tap layer-activator">KBDCTL</text>
</a><text x="336" y="244" class="combo hold">toggle</text>
</g>
<g class="combo combopos-21">
<path d="M532,157 l-37,-1" class="combo"/>
<path d="M532,157 l37,1" class="combo"/>
<rect rx="6" ry="6" x="518" y="144" width="28" height="26" class="combo"/>
<text x="532" y="157" class="combo tap"><tspan style="font-size: 88%">&amp;btclall</tspan></text>
</g>
</g>
</g>
</svg>
